<?xml version="1.0" encoding="UTF-8" standalone="no"?>
<svg xmlns:rdf="http://www.w3.org/1999/02/22-rdf-syntax-ns#" xmlns="http://www.w3.org/2000/svg" xml:space="preserve" height="252.82" width="252" version="1.1" xmlns:cc="http://creativecommons.org/ns#" xmlns:dc="http://purl.org/dc/elements/1.1/" viewBox="0 0 252 252.81715"><g><path fill="#c6bcb6" d="m125.95 64.569c20.109 0 39.439 13.171 49.492 32.518h-44.627l-19.445 50.859v17.808l11.957-8.8568c0.057-0.0379 5.701-4.1827 12.562-4.1827h30.259v14.634c-10.169 13.437-24.689 21.117-40.198 21.117-29.499 0-53.486-27.786-53.486-61.938 0-34.171 23.988-61.957 53.486-61.957zm0-63.457c-33.908 0-65.174 12.085-88.04 34.036-23.871 22.921-37.023 55.364-37.023 91.378 0 36.168 13.153 68.684 37.044 91.548 22.789 21.818 54.055 33.848 88.02 33.848 25.849 0 44.57-6.8614 58.255-11.86 6.5763-2.4139 12.258-4.4855 15.623-4.4855 8.7999 0 24.483 8.0227 34.118 12.831v-121.88c0-9.6359 4.3717-14.976 4.5427-15.185 0.17115-0.19005 12.391-14.217 12.391-14.217l-47.079-0.05714 26.076-33.83-2.8513-5.2083c-0.32-0.586-8.15-14.708-24.52-28.733-15.04-12.848-40.5-28.182-76.56-28.182z"/><path d="m125.95 9.5508c-64.848 0-117.42 46.259-117.42 116.98-0.0007 71.17 52.572 116.96 117.42 116.96 38.7 0 61.22-16.37 73.88-16.37 10.09 0 26.48 8.21 26.48 8.21v-108.8c0-13.53 6.65-21.02 6.65-21.02l-45.71 0.02-51.36 0.02v-0.01l-16.88 44.11v0.27s7.4-5.64 16.88-5.64h37.9v26.03c-11.19 16.22-28.47 26.59-47.84 26.59-33.755 0-61.124-31.51-61.124-70.37 0-38.888 27.369-70.397 61.124-70.397 27.41 0 52.74 20.771 61.3 49.397l33.24-43.126s-28.91-52.853-94.54-52.853z" transform="translate(0 -.0014267)" stroke="#011e41" stroke-width=".58512" fill="#011e41"/></g></svg>
