<?xml version="1.0" standalone="no"?>
<!DOCTYPE svg PUBLIC "-//W3C//DTD SVG 20010904//EN"
 "http://www.w3.org/TR/2001/REC-SVG-20010904/DTD/svg10.dtd">
<svg version="1.0" xmlns="http://www.w3.org/2000/svg"
 width="362.000000pt" height="203.000000pt" viewBox="0 0 362.000000 203.000000"
 preserveAspectRatio="xMidYMid meet">
<metadata>
Created by potrace 1.10, written by Peter Selinger 2001-2011
</metadata>
<g transform="translate(0.000000,203.000000) scale(0.100000,-0.100000)"
fill="#073763" stroke="none">
<path d="M0 1940 l0 -90 90 0 90 0 0 90 0 90 -90 0 -90 0 0 -90z"/>
<path d="M217 1823 c-4 -3 -7 -44 -7 -90 l0 -83 90 0 90 0 0 90 0 90 -83 0
c-46 0 -87 -3 -90 -7z"/>
<path d="M427 1823 c-4 -3 -7 -368 -7 -810 l0 -803 95 0 95 0 1 563 c1 495 3
554 14 492 8 -38 54 -290 104 -559 50 -268 94 -492 97 -497 7 -11 291 -12 298
-1 5 8 178 929 207 1097 6 39 15 77 20 85 5 8 9 -253 9 -587 l0 -603 195 0
195 0 0 815 0 815 -300 0 -300 0 -5 -22 c-2 -13 -39 -216 -80 -453 -87 -493
-86 -488 -91 -482 -2 2 -40 208 -84 458 -44 250 -83 464 -85 477 -5 22 -7 22
-189 22 -100 0 -186 -3 -189 -7z"/>
<path d="M1885 1818 c-3 -7 -4 -373 -3 -813 l3 -800 365 0 c354 0 367 1 435
23 165 54 262 182 299 394 34 195 29 678 -9 837 -21 87 -66 178 -115 234 -54
60 -160 113 -255 127 -108 15 -714 13 -720 -2z m620 -328 c54 -50 60 -101 60
-475 0 -374 -6 -425 -60 -475 -23 -22 -37 -25 -116 -28 l-89 -4 0 507 0 507
89 -4 c79 -3 93 -6 116 -28z"/>
<path d="M3115 1818 c-3 -7 -4 -373 -3 -813 l3 -800 208 -3 207 -2 0 815 0
815 -205 0 c-155 0 -207 -3 -210 -12z"/>
<path d="M0 1530 l0 -91 88 3 87 3 3 88 3 87 -91 0 -90 0 0 -90z"/>
<path d="M212 1533 l3 -88 85 0 85 0 3 88 3 87 -91 0 -91 0 3 -87z"/>
<path d="M0 1330 l0 -90 90 0 90 0 0 90 0 90 -90 0 -90 0 0 -90z"/>
<path d="M0 1120 l0 -90 90 0 90 0 0 90 0 90 -90 0 -90 0 0 -90z"/>
<path d="M210 1125 l0 -85 58 -1 c59 -2 102 -2 115 0 4 1 7 39 7 86 l0 85 -90
0 -90 0 0 -85z"/>
<path d="M217 1004 c-4 -4 -7 -45 -7 -91 l0 -83 90 0 90 0 0 89 0 88 -83 2
c-45 1 -86 -1 -90 -5z"/>
<path d="M0 915 l0 -85 90 0 90 0 0 85 0 85 -90 0 -90 0 0 -85z"/>
<path d="M0 710 l0 -90 90 0 90 0 0 90 0 90 -90 0 -90 0 0 -90z"/>
<path d="M212 713 l3 -88 88 -3 87 -3 0 91 0 90 -90 0 -91 0 3 -87z"/>
<path d="M0 505 l0 -85 90 0 90 0 0 85 0 85 -90 0 -90 0 0 -85z"/>
<path d="M210 505 l0 -85 90 0 90 0 0 85 0 85 -90 0 -90 0 0 -85z"/>
<path d="M0 300 l0 -90 90 0 90 0 0 90 0 90 -90 0 -90 0 0 -90z"/>
<path d="M210 300 l0 -90 90 0 90 0 0 90 0 90 -90 0 -90 0 0 -90z"/>
</g>
</svg>
